# xmcd
#
# Track frame offsets:
#	150
#	14351
#	27067
#	37143
#	51309
#	62548
#	73749
#	85590
#	97366
#	108885
#	119896
#	130554
#	141930
#	153934
#	168738
#	179856
#	194000
#	206296
#	223347
#	238136
#
# Disc length: 3376 seconds
#
# Revision: 0
# Processed by: cddbd v1.5.2PL0 Copyright (c) Steve Scherf et al.
# Submitted via: audiograbber 1.83.01
#
DISCID=360d2e14
DTITLE=Leo Dan - Lo Esencial De Leo Dan 3.2
DYEAR=1975
DGENRE=Ballad
TTITLE0=Te He Prometido
TTITLE1=Una Calle Nos Separa
TTITLE2=Hay Una Chica En Mi Camino
TTITLE3=Con Los Brazos Cruzados
TTITLE4=Marisa
TTITLE5=Yo Tengo Que Encontrar La Solucion
TTITLE6=Por Un Milagro De Amor
TTITLE7=La Novela De Un Joven Pobre
TTITLE8=Mi Corazon Te Podra Decir
TTITLE9=Quien No Tiene Una Ilusion
TTITLE10=Estelita
TTITLE11=No Existe Un Ley
TTITLE12=Bienvenida
TTITLE13=El Amor Estuvo Aqui
TTITLE14=Soy De Cualquier Lugar
TTITLE15=Pachita
TTITLE16=Este Amor Se Va
TTITLE17=Siempre Estoy Pensando En Ella
TTITLE18=Niña Que Tienen Tus Ojos
TTITLE19=Tu Llegaste Cuando Menos Te Esperaba
EXTD=MS®
EXTT0=MS®
EXTT1=
EXTT2=
EXTT3=
EXTT4=
EXTT5=
EXTT6=
EXTT7=
EXTT8=
EXTT9=
EXTT10=
EXTT11=
EXTT12=
EXTT13=
EXTT14=
EXTT15=
EXTT16=
EXTT17=
EXTT18=
EXTT19=
PLAYORDER=
